<?xml version="1.0" encoding="utf-8"?>
<svg version="1.0" xmlns="http://www.w3.org/2000/svg" width="1024px" height="1024px" viewBox="0 0 1024 1024" preserveAspectRatio="xMidYMid meet">
  <g fill="#fdfbf7">
    <path d="M542 836.4 c-4.7 -4 -11.4 -13.9 -18.5 -27.5 -5 -9.5 -6.5 -13.3 -6.5 -16.5 0 -6.3 -4.4 -18.1 -13.5 -36.4 -8.2 -16.5 -14.5 -27.1 -35.2 -60 -25.6 -40.6 -37.3 -67.4 -40.4 -92.3 -1.3 -10.3 -0.6 -36.1 1.1 -44.8 1.3 -6.2 4.9 -18.1 5.9 -19 0.3 -0.4 4.5 -1 9.3 -1.3 8.7 -0.7 8.8 -0.7 11.3 2 2.1 2.2 3.8 2.9 9.1 3.6 5.6 0.6 7.2 1.3 10.5 4.2 2.1 2 5.1 3.8 6.6 4.2 5.8 1.2 8.4 2.8 11.5 6.7 1.8 2.3 5.2 4.8 7.7 6 8.8 3.8 20.1 15.4 31.9 32.4 4.1 6.1 6.2 10.6 9.7 21.4 14.7 45 20.2 90.5 19.2 158.9 -0.5 34 -1.7 47.3 -5.1 55.5 -2.6 6 -9.2 7.4 -14.6 2.9z"/>
    <path d="M567.5 717.8 c-0.2 -0.7 -0.9 -6.7 -1.5 -13.3 -2.1 -22 -8.3 -54.4 -13.1 -68.4 -1.1 -3 -1.9 -7.1 -1.9 -9.1 0 -3.3 0.6 -4.2 6 -8.4 10.1 -7.9 29.8 -30.7 44.9 -51.8 5.7 -8 6.6 -8.8 9.6 -8.8 4.3 0 4.5 0.9 4.5 19 0 18.6 -3.2 45.6 -7.5 64.5 -4.1 17.4 -12.4 39 -22.4 58 -9.5 18.1 -10.5 19.5 -14.6 19.5 -2 0 -3.7 -0.6 -4 -1.2z"/>
    <path d="M559.5 526.3 c-1.6 -0.3 -3.6 -1 -4.3 -1.5 -0.7 -0.6 -4 -1 -7.3 -0.9 -6.3 0.2 -27.3 -2.9 -37.4 -5.5 -13.3 -3.5 -25.6 -7.9 -36.7 -13.1 -11.4 -5.4 -11.8 -5.7 -11.8 -8.8 0 -1.7 0.5 -3.6 1.1 -4.2 0.7 -0.7 1.9 -3.3 2.9 -6 1 -2.6 3.8 -9.3 6.3 -14.8 5.5 -11.8 8.1 -21.3 7.2 -25.8 -0.4 -1.8 -1.7 -6.9 -3.1 -11.3 -1.3 -4.5 -2.4 -10.2 -2.4 -12.7 0 -5.1 -0.1 -5.1 11.5 -6.2 15.2 -1.5 34.1 -7.5 43.6 -13.8 3.1 -2 8.6 -6.4 12.2 -9.7 7.8 -7.1 11 -7.8 15 -3 1.4 1.7 2.9 2.6 3.2 2 1.2 -1.9 9 -1.2 11 1 1 1.1 2.2 2 2.6 2 0.4 0 2.8 1.4 5.3 3 5.3 3.6 10.9 5.7 17.8 6.6 l5.1 0.7 -0.6 6.6 c-0.4 3.6 -2.2 11.7 -4.2 18 -1.9 6.2 -3.5 12.9 -3.5 14.9 0 5.2 3.1 14.8 11.5 35.2 11 26.8 10.6 29.7 -5.4 40.2 -6.4 4.2 -8 4.8 -12.5 4.8 -2.8 0 -5.9 -0.7 -7 -1.5 -1.7 -1.3 -2.3 -1.1 -6 1.5 -4 3 -6.4 3.4 -14.1 2.3z"/>
    <path d="M349.6 406.8 c-7.6 -11.9 -5.4 -38 5.3 -63.2 8.1 -19 20.6 -45.3 24.3 -51.3 7.6 -12.2 20.9 -22.2 37.6 -28.4 10 -3.7 13.9 -3.8 17 -0.1 2 2.3 2.1 2.4 0.8 0.2 -0.9 -1.3 -1.6 -4.1 -1.6 -6.2 0 -3.2 0.6 -4.2 4.7 -7.5 8.7 -7 18.1 -16.4 19.3 -19.3 0.9 -2.3 0.8 -7.3 -0.9 -24.8 -3.8 -40.1 -2.3 -54 6.9 -64.6 2.7 -3 3.9 -3.6 7.1 -3.6 3.7 0 3.9 0.1 3.9 3.3 0 1.7 -0.5 4.9 -1.1 7 -2.3 8.3 6.1 29.7 16.1 40.9 5.3 6 15.9 14.3 22.5 17.6 5.2 2.6 13.5 4.9 20.7 5.7 l5.7 0.6 -0.6 13.9 -0.6 13.8 3.6 7.6 c5 10.5 7.3 12.6 13.7 12.6 5 0 5.4 0.2 11.6 6.2 l6.4 6.1 0 -3.6 c0 -3.5 0.2 -3.7 3.2 -3.7 5.3 0 19.2 7.5 24.2 13.1 3.5 3.9 4.8 6.4 6.6 13.1 1.3 4.6 2.5 10.4 2.8 13.1 l0.5 4.7 -5.2 0 c-4.8 0 -5.1 0.1 -4.1 1.9 2.1 4 1.1 7 -4.7 13.9 -3.1 3.7 -8.7 11.4 -12.4 17.2 -3.8 5.8 -8.7 13.1 -10.9 16.3 -3.9 5.3 -4.5 5.7 -8.1 5.7 -2.8 0 -3.9 -0.4 -3.9 -1.5 0 -0.8 -0.9 -1.5 -2 -1.5 -1.1 0 -3.5 -1.7 -5.3 -3.7 -20.8 -24.4 -35.7 -32.8 -69.9 -39.3 -3.5 -0.7 -5.8 -1.7 -5.8 -2.4 0 -0.7 -2.3 -4.5 -5.2 -8.4 -4.8 -6.8 -5.4 -7.2 -9 -7.2 -3.7 0 -3.8 -0.1 -3.8 -3.5 0 -1.9 0.5 -3.5 1.1 -3.5 0.5 0 -1.1 -2.7 -3.6 -6 -3.4 -4.4 -5.3 -6 -7.1 -6 -1.7 0 -2.4 -0.5 -2.4 -2 0 -1.1 -0.7 -2 -1.5 -2 -0.9 0 -1.5 -0.9 -1.5 -2.5 0 -1.6 -0.6 -2.5 -1.5 -2.5 -0.8 0 -1.5 -0.4 -1.5 -1 0 -1 -3.6 -5 -4.5 -5 -0.2 0 2 3.8 5.1 8.5 5.9 9.1 15.3 28.1 18.5 37.3 1 3 1.9 7.8 1.9 10.6 0 6.1 -3.4 27.5 -5.7 36.3 -1.7 6.1 -1.8 6.3 -5 6.3 -1.8 0 -3.3 -0.4 -3.3 -1 0 -0.5 -0.6 -1 -1.2 -1 -1.5 0 -4.6 -4.8 -11.3 -17.2 -5.9 -11.1 -7.7 -11.6 -11.9 -3 -10.6 21.8 -27.9 40.9 -54 59.5 -7.2 5.2 -8.3 5.7 -13.2 5.7 -4.5 0 -5.6 -0.4 -6.8 -2.2z"/>
    <path d="M521.5 202.7 c-16.6 -4.2 -34.5 -20.9 -41.1 -38.2 -3.2 -8.7 -3.4 -25.1 -0.4 -33.9 4.7 -13.8 14.5 -27 23.3 -31.4 6.6 -3.3 13.3 -4.2 30.3 -4.2 17.4 0 21.9 1.1 31.5 7.8 6.7 4.7 11.5 11.8 16.3 24.2 5.4 14.1 5 25.2 -1.1 32.2 -1.3 1.5 -1.2 1.8 0.8 2.9 1.3 0.6 6.2 1.4 11.1 1.7 l8.8 0.5 0 3.6 c0 3.3 -0.5 3.8 -5.3 6.5 -5.8 3.1 -22.1 13.3 -36.7 22.9 l-9.5 6.2 -11.5 0.2 c-6.6 0.1 -13.6 -0.3 -16.5 -1z m30.6 -58.8 c2.7 -1.2 4.9 -2.2 4.9 -2.3 0 -0.1 -2.5 -2.8 -5.5 -5.9 -4.7 -4.8 -5.9 -5.6 -7.5 -4.7 -1 0.5 -4.9 1 -8.6 1 l-6.8 0 4.9 5.1 c3.9 4 10.9 8.7 13.3 8.9 0.2 0 2.6 -1 5.3 -2.1z"/>
  </g>
  <g fill="#d0cfce">
    <path d="M511.6 785.9 c-7.2 -14 -20.1 -34.8 -27.7 -44.8 -41 -53.3 -53.5 -72.7 -65.4 -101.9 -7.6 -18.8 -13.5 -43.5 -13.5 -57.1 0 -5.6 3.9 -26.7 6.3 -33.6 1.9 -5.7 6.4 -7.7 18.9 -8.3 9.6 -0.5 11.2 0 8.4 2.2 -1.5 1.2 -4.9 11.1 -6.5 19.1 -1.8 8.9 -2.4 29.5 -1.2 39.2 3.1 24.9 14.8 51.7 40.4 92.3 20.6 32.6 27 43.5 34.9 59.3 6.8 13.7 11.8 25 12.4 28.2 0.1 0.6 0.7 2.9 1.3 5.3 0.7 2.4 1.1 5.3 0.9 6.5 -0.1 1.2 0.1 2.8 0.5 3.5 0.6 0.8 0.1 1.2 -1.6 1.2 -2 0 -3.2 -1.7 -8.1 -11.1z"/>
    <path d="M456.8 495.9 c-6.8 -4.4 -6.7 -7.7 0.6 -18.8 6.7 -10.2 11.9 -22.2 11.9 -27.6 0 -2.4 -1.7 -7.9 -4.2 -14 -2.4 -5.5 -4.5 -12.4 -4.8 -15.2 l-0.6 -5.3 6.4 0 c11.3 0 19.9 1.2 19.9 2.6 0 0.8 -0.8 1.5 -1.7 1.6 -1 0 -2.2 0.2 -2.8 0.3 -0.5 0.2 -1.8 0.3 -2.7 0.4 -2.4 0.1 -2.2 2.1 0.7 11.6 3.4 10.6 4 17.7 2.4 25 -1.7 8.2 -1.4 7.3 -8.9 23.4 -2.8 5.9 -5 11.5 -5 12.3 0 0.9 -0.7 2.1 -1.6 2.9 -1.4 1.1 -1.3 1.4 0.8 2.5 2.2 1.3 2.1 1.3 -1.7 1.4 -2.8 0 -5.4 -0.9 -8.7 -3.1z"/>
    <path d="M561.6 489.8 c-1.9 -2.7 -2 -4.5 -0.3 -5.1 0.7 -0.3 0.5 -0.6 -0.5 -0.6 -2.1 -0.1 -2.4 -1.7 -0.5 -2.4 0.7 -0.3 0.5 -0.6 -0.5 -0.6 -2 -0.1 -2.5 -3.7 -0.6 -4.3 0.7 -0.3 1.2 -2.3 1.2 -4.6 0.1 -6.7 2.1 -4.2 2.2 2.6 0 3.4 0.6 6.8 1.2 7.4 0.9 0.9 1.2 0.9 1.2 0 0 -0.7 0.7 -1.2 1.5 -1.2 1.2 0 1.4 0.8 0.9 4.3 -1.1 6.8 -3.1 8.4 -5.8 4.5z"/>
    <path d="M359 457.1 c-5.8 -6 -14 -13.4 -18.2 -16.5 -7.1 -5.2 -7.8 -6 -7.8 -9.1 0 -3.4 0.1 -3.5 3.9 -3.5 4.7 0 15.9 5.5 21 10.3 1.9 1.8 6.7 7.7 10.7 13.1 5.7 7.7 7.4 10.7 7.4 13.3 0 3.1 -0.2 3.3 -3.3 3.3 -2.8 0 -4.6 -1.4 -13.7 -10.9z"/>
    <path d="M609.2 431.3 c-4.6 -17.5 -5.5 -28.8 -2.4 -31.6 1 -1 3.5 -1.7 5.4 -1.7 3.4 0 3.6 0.2 4.8 4.8 1.2 4.9 2.2 30 1.3 34 -0.4 1.7 -1.2 2.2 -3.8 2.2 -3.2 0 -3.3 -0.1 -5.3 -7.7z"/>
    <path d="M571.3 397.5 c-1.3 -0.7 -3.1 -1.9 -4.1 -2.8 -2.3 -2.1 -3.6 -2.1 -5.2 -0.2 -1.8 2.2 -5 1.9 -5 -0.5 0 -1.3 0.7 -2 2 -2 1.3 0 2 -0.7 2 -2 0 -1.6 0.7 -2 3.6 -2 4.3 0 9.7 4.9 9.2 8.5 -0.3 1.8 -0.6 1.9 -2.5 1z"/>
    <path d="M428.6 381.5 c-4.1 -4.4 -10.6 -17.5 -10.6 -21.3 0 -1.6 1.8 -7.7 4 -13.6 2.4 -6.3 3.8 -11.6 3.5 -12.9 -1 -3.9 7 -10.9 9 -7.8 0.3 0.5 0.1 1.2 -0.5 1.6 -2.1 1.3 -0.8 6.2 4.1 15.4 7.4 14 10.2 18.1 12.1 18.1 1 0 2 -1 2.4 -2.5 0.9 -3.4 3.4 -3.2 3.4 0.3 0 4.1 -4.4 15.7 -7.4 19.7 -3.4 4.5 -7.4 6.5 -12.7 6.5 -3.4 0 -4.7 -0.6 -7.3 -3.5z"/>
    <path d="M557.2 340.6 c-0.6 -2.4 -1.7 -5 -2.5 -5.7 -0.7 -0.8 -2.2 -3 -3.4 -4.9 -1.2 -1.9 -3.4 -4.8 -4.9 -6.3 -1.4 -1.6 -2.3 -3.1 -1.9 -3.5 0.4 -0.4 1.8 0.7 3.1 2.3 6.9 8.3 11.4 14.7 11.4 16 0 0.7 0.5 1.7 1 2 1.5 0.9 1.2 4.5 -0.3 4.5 -0.7 0 -1.8 -2 -2.5 -4.4z"/>
    <path d="M473.1 317.6 c-3.7 -0.6 -6.7 -1.7 -7.2 -2.6 -0.4 -0.8 -2 -4.4 -3.6 -8 -2.7 -6.5 -12.2 -22.3 -17.5 -29.1 -1.5 -2 -2.8 -4.1 -2.8 -4.7 0 -0.5 -0.7 -1.2 -1.5 -1.6 -0.8 -0.3 -1.5 -1.2 -1.5 -2.1 0 -0.8 -0.4 -1.5 -1 -1.5 -0.5 0 -1 -1.6 -1 -3.6 l0 -3.7 3.5 3.7 c1.9 2.1 3.5 4.1 3.5 4.6 0 0.4 0.7 0.7 1.5 0.6 1.6 -0.1 5.3 4.2 22.5 26.7 6.6 8.6 12 16.4 12 17.1 0 0.8 1.4 1.7 3 2.1 1.7 0.4 3 1.3 3 2.1 0 1.7 -3.5 1.7 -12.9 0z"/>
    <path d="M526.1 277.1 c-1.2 -1.2 -2.5 -2.1 -3.1 -2.1 -0.5 0 -1 -0.4 -1 -1 0 -0.5 -0.7 -1 -1.5 -1 -0.8 0 -1.5 -0.4 -1.5 -0.9 0 -0.9 -5.9 -2.5 -13.7 -3.6 -6.9 -1.1 -4.9 -2.2 3.1 -1.9 6 0.2 7.8 0.6 9.5 2.3 1.9 1.9 3.5 2.6 4.4 1.9 0.2 -0.2 1.8 1.4 3.6 3.5 3.6 4 3.7 6.3 0.2 2.8z"/>
    <path d="M627.3 156.3 l-30.3 -0.3 0 -3.4 c0 -5.3 2.5 -10.2 6 -11.6 6.4 -2.7 38.1 -0.1 56.3 4.6 16.8 4.2 16.7 4.2 16.7 8 l0 3.4 -9.2 -0.2 c-5.1 -0.2 -22.9 -0.4 -39.5 -0.5z"/>
  </g>
  <g fill="#152029">
    <path d="M468 937.5 c0 -2.3 -4.1 -5.5 -7.2 -5.5 -2.5 0 -2.8 -0.3 -2.8 -3.5 0 -3.2 -0.2 -3.5 -2.9 -3.5 -2.3 0 -3.4 -0.7 -4.8 -3 -0.9 -1.6 -2.1 -3 -2.5 -3 -0.4 0 -0.8 -1.8 -0.8 -4 0 -3.9 0.1 -4 3.5 -4 4 0 7.1 2.7 8 7.1 0.6 2.4 1.2 2.9 3.7 2.9 2.2 0 4.2 1.2 7.9 4.8 4.3 4.2 4.9 5.2 4.9 9 0 4.1 0 4.2 -3.5 4.2 -2.4 0 -3.5 -0.5 -3.5 -1.5z m-3.9 -10.6 c-4.6 -4.3 -8.6 -7.7 -8.9 -7.4 -0.8 0.8 6.9 9.5 11.1 12.6 7.3 5.3 6.3 2.9 -2.2 -5.2z"/>
    <path d="M598.8 923 c-0.7 -1.1 -1.8 -2 -2.5 -2 -0.8 0 -1.3 -1.4 -1.3 -3.5 0 -3.4 0.1 -3.5 4 -3.5 2.2 0 4 0.5 4 1 0 0.6 0.6 1 1.4 1 1.3 0 2.6 2 2.6 4.2 0 0.6 -1 0.8 -2.1 0.5 -2.1 -0.6 -2.1 -0.5 0.2 1.9 l2.2 2.4 -3.6 0 c-2.6 0 -4.1 -0.6 -4.9 -2z"/>
    <path d="M546.4 607.3 c-1.4 -1.5 -4.6 -5.7 -7.2 -9.3 -7.1 -10 -27.3 -33.9 -33.4 -39.5 -5 -4.5 -8.4 -7.5 -21.4 -18.9 -2.3 -2 -5.2 -3.6 -6.5 -3.6 -1.3 0 -7.8 -1.6 -14.4 -3.5 -14.1 -4.1 -21.3 -4.4 -32.5 -1.5 -4.1 1.1 -9.2 2 -11.2 2 -3.7 0 -3.8 -0.1 -3.8 -3.5 0 -5.1 4.8 -13.8 12.4 -22.7 l6.7 -7.8 5.9 0 c4.6 0 7.7 0.8 13.9 3.5 4.3 1.9 8.4 3.5 9.1 3.5 0.6 0 7.1 2.9 14.5 6.5 18.2 8.8 38 14.8 56.9 17.1 4.3 0.5 5.5 1.2 9.7 5.7 l4.8 5.2 3.9 -2.3 c3.1 -1.7 5.6 -2.2 11 -2.2 6.9 0 7 0.1 8.1 3 0.5 1.7 1.2 3 1.5 3 0.2 0 1.8 -2.2 3.5 -5 2.6 -4.2 3.6 -5 6.1 -5 1.6 0 3 -0.5 3 -1 0 -0.6 4 -5.1 8.9 -10.1 8.5 -8.5 9.2 -9 12.7 -8.7 4.8 0.4 5.5 2.5 5.7 17.3 0.2 10.1 0 11.5 -2.5 16.8 -8.5 18 -28.4 42.1 -48.6 58.6 -5.2 4.2 -7 5.1 -10.3 5.1 -3.1 0 -4.6 -0.6 -6.5 -2.7z"/>
    <path d="M561 476.6 c0 -1.4 0.5 -2.8 1 -3.1 0.6 -0.3 1 0.5 1 1.9 0 1.4 -0.4 2.8 -1 3.1 -0.6 0.3 -1 -0.5 -1 -1.9z"/>
    <path d="M371.3 471.5 c-3.5 -3.6 -4.3 -5.1 -4.3 -8.2 l0 -3.7 3.2 3 3.2 2.9 -1.7 -2.7 -1.7 -2.8 2.8 0 c2.6 0 6.2 2.5 6.2 4.3 0 0.4 0.9 1.6 2 2.7 1.2 1.2 2 3.3 2 5.5 0 3.4 -0.1 3.5 -3.7 3.5 -3.2 -0.1 -4.5 -0.8 -8 -4.5z"/>
    <path d="M610 438 c0 -4.8 0.3 -6 1.6 -6 0.9 0 1.8 1 2.2 2.2 l0.5 2.2 0.8 -2.2 c0.5 -1.2 1.5 -2.2 2.4 -2.2 1.2 0 1.5 1.2 1.5 5.4 0 5.8 -0.7 6.6 -6.1 6.6 -2.9 0 -2.9 0 -2.9 -6z"/>
    <path d="M329.7 433.2 c-1 -1 -1.7 -3.3 -1.7 -5 0 -3 0.2 -3.2 3.8 -3.2 4.4 0.1 7.2 1.9 7.2 4.8 0 1.6 -0.4 2 -1.7 1.5 -1.6 -0.6 -1.6 -0.4 0.1 1.5 l1.9 2.2 -4 0 c-2.6 0 -4.6 -0.6 -5.6 -1.8z"/>
    <path d="M496.7 378.9 c-16.8 -4 -31.1 -20 -32.5 -36.4 -1 -13.3 2.5 -16.6 17.9 -17.3 21.8 -1 46.1 8.6 60.2 23.7 4.4 4.7 4.7 5.3 4.7 10.6 0 6.6 -1.9 8.9 -11 13.5 -12.6 6.4 -27.7 8.6 -39.3 5.9z"/>
    <path d="M572 373.1 c-3.3 -0.6 -3.5 -0.9 -3.8 -4.7 -0.3 -3.8 0.3 -4.6 10.2 -16.5 5.7 -6.8 14.5 -16.3 19.4 -21.1 7.4 -7.2 9.5 -8.8 12.1 -8.8 3.7 0 5.3 2.7 7.1 11.8 3.5 17.7 -3.9 32.5 -19 38.3 -5.1 1.9 -17.9 2.4 -26 1z"/>
    <path d="M555.1 335.7 c-3.5 -7.4 -3.5 -7.6 -0.4 -3.8 3.6 4.4 5.7 9.1 4 9.1 -0.7 0 -2.3 -2.4 -3.6 -5.3z"/>
    <path d="M519.7 272.2 c-2 -1.4 -3.5 -2.7 -3.3 -2.9 0.6 -0.6 6.3 2.4 7.1 3.8 1.3 1.9 0 1.7 -3.8 -0.9z"/>
    <path d="M671.3 157.3 c-1.9 -0.7 -1.6 -3.3 0.5 -3.3 1.6 -0.1 1.6 -0.1 0 -1.1 -3.3 -1.9 -1.8 -2.9 4.2 -2.9 l6 0 0 4 0 4 -4.7 -0.1 c-2.7 0 -5.4 -0.3 -6 -0.6z"/>
  </g>
  <g fill="#000508">
    <path d="M640.5 954.9 c-18.3 -4.4 -28.5 -5.7 -46.5 -6.3 -22.9 -0.7 -30.6 -3.1 -36.4 -11.5 -3.6 -5.2 -5.3 -11.2 -6.5 -22.9 -1.3 -12.3 -2.6 -16.5 -11.3 -37 -15.8 -37.4 -29.6 -66.9 -32.4 -69.3 -2.7 -2.3 -33.2 37.8 -40.4 53.3 -6.5 13.9 -7.5 26 -3 35.4 4.7 9.5 17.8 19.5 35.1 26.4 9 3.7 12.6 6.8 13.5 11.8 0.9 4.9 -1.5 6.7 -10.3 7.6 -6.2 0.5 -11.8 -0.2 -22.3 -2.9 -2.2 -0.5 -2.7 -0.1 -3.7 2.6 l-1.2 3.2 -9.8 -0.6 c-11.4 -0.7 -22.4 -3.5 -25.8 -6.7 -1.3 -1.2 -4.9 -8 -8.1 -15.1 -3.1 -7.1 -7.9 -16.8 -10.6 -21.6 -2.7 -4.7 -5.4 -9.7 -5.9 -11.1 -1.5 -3.8 0.6 -9.7 7.7 -21.3 11.7 -19.4 18.1 -35.5 23 -58.2 5.1 -23.9 9.4 -39.2 15 -53 6.3 -15.8 6.4 -14.7 -1.1 -24 l-4.6 -5.8 -7 10.6 c-11 16.6 -31.4 36.1 -44.9 43 -13 6.6 -29.8 9.4 -42.8 7.1 -9.9 -1.7 -14.6 -4.2 -15 -7.8 -0.2 -2 0.2 -2.8 2 -3.3 4.4 -1.4 18.7 -11.6 22.3 -15.9 7.8 -9.6 15.6 -31.7 18.5 -52.6 0.7 -5 1.5 -32.2 1.9 -65.5 0.9 -67.6 1.3 -64.5 -8.1 -64.5 -7.1 0 -13.5 -2.9 -19.2 -8.9 -5.1 -5.2 -5.5 -10.1 -1.2 -13.8 1.8 -1.5 3.5 -2.2 4.5 -1.7 0.9 0.3 3.7 0.9 6.2 1.1 4.4 0.5 4.7 0.3 8.2 -3.7 2.5 -3 4.7 -7.5 7.2 -14.9 2 -5.8 3.9 -11.1 4.2 -11.8 0.7 -1.9 -7.9 -10.5 -16.1 -16.2 -4 -2.7 -13.8 -8.6 -21.8 -12.9 -15.7 -8.7 -23.1 -13.3 -29.3 -18.1 -7.2 -5.8 -20.6 -19.5 -27.3 -28 -6.5 -8.3 -6.7 -8.6 -7 -15.3 -0.9 -15.7 10.9 -39.8 39.8 -81.3 8.8 -12.6 14.4 -21.9 26 -43 11.4 -20.8 20.2 -33.3 33.4 -47.5 21.5 -23.2 24.9 -32.4 26.6 -71.5 1.2 -30 1.5 -33.1 4.4 -45 4.3 -17.4 9.8 -28.4 21.3 -42.8 18.5 -23 50.3 -35.5 83 -32.7 21.4 1.9 37.1 6.6 50.5 15.2 3.7 2.3 12.7 10.5 21.8 19.8 8.5 8.7 18 17.5 21.1 19.5 8 5.1 17.2 8.7 39.2 15 22.7 6.5 33.6 11.5 40.7 18.6 2.8 2.7 5 5.5 5 6 0 0.7 -3.3 0.7 -9.7 0.2 -17.4 -1.4 -47.8 -0.9 -57.3 1.1 -10.7 2.2 -21.8 6.4 -34 12.9 -12.6 6.7 -50.8 31.5 -52 33.7 -0.5 1 -1.5 5 -2.2 8.8 -1.5 8.7 -0.2 16.6 4.1 25.8 2.7 5.8 3.2 6.3 6.8 7 28.1 4.9 44.2 14.3 52 30.5 3.1 6.1 8.3 24.9 8.3 29.5 0 1.2 2.5 5.4 5.5 9.5 7.6 10.3 9.7 16 10.3 29 0.5 11.9 -0.6 18.4 -4.5 27.2 l-2.6 5.8 1.7 12.2 c3.8 25.4 8.4 39.4 22.8 68.1 14.4 28.8 25.7 62.7 33.8 102.1 2.6 12.4 3.2 18.2 3.7 33.6 1.1 34.7 -3.5 53.2 -16.4 67 -5.9 6.3 -12.3 9.7 -16 8.3 -4.6 -1.6 -4.2 -4.6 2 -12.2 9.1 -11.2 10.2 -14 10.2 -26.4 0 -10 -0.6 -13.1 -2.2 -11.5 -0.4 0.4 -0.9 5.1 -1.2 10.4 -0.5 7.6 -1 9.8 -2.3 10.7 -2.5 1.5 -4.8 -0.2 -6.7 -5 -1.1 -2.8 -1.5 -7.6 -1.5 -16.9 0.1 -11.3 0.4 -14.2 2.8 -22 6.5 -21.1 4.2 -29.6 -15.4 -57.5 -4.8 -6.9 -12 -17.4 -15.9 -23.4 -3.9 -6.1 -7.1 -10.2 -7.1 -9.3 0 1 1.1 7.3 2.5 14 11.7 58.2 -0.4 120.8 -38.1 196.7 l-11.2 22.5 -0.7 44 c-0.7 46.7 -0.1 60 3.5 75.2 5.8 24.7 20.6 37.8 57 50.5 14.1 4.9 25.9 10.7 31.8 15.5 4.5 3.7 10.4 12.1 9.6 13.5 -0.9 1.4 -13.8 0.9 -19.1 -0.7 -2.8 -0.8 -7.8 -3.5 -11 -5.9 -7.2 -5.4 -12.5 -8.1 -27.8 -14.1 -6.6 -2.6 -12.6 -5.2 -13.3 -5.8 -0.7 -0.5 -1.5 -0.7 -1.8 -0.4 -1.2 1.2 20.9 14.6 42.1 25.6 9.8 5.1 12.5 7.2 12.5 9.8 0 3 -3.6 3 -15.5 0.2z m-173.9 -26.3 c-3.2 -2.8 -8 -7.2 -10.8 -9.8 -7.7 -7.1 -7.4 -4.9 0.3 3.3 1.5 1.5 3.3 3.6 4 4.6 2.1 3 11.4 9.3 11.8 8.1 0.2 -0.5 -2.2 -3.3 -5.3 -6.2z m87 -98.1 c3.3 -7.9 4.6 -21.7 5.1 -52.5 1.1 -64.8 -4.7 -111.5 -19.2 -155.9 -3.5 -10.8 -5.6 -15.3 -9.7 -21.4 -11.8 -17 -23.1 -28.6 -31.9 -32.4 -2.5 -1.2 -5.9 -3.7 -7.7 -6 -3.1 -3.9 -5.7 -5.5 -11.5 -6.7 -1.5 -0.4 -4.5 -2.2 -6.6 -4.2 -3.3 -2.9 -4.9 -3.6 -10.5 -4.2 -5.1 -0.7 -7 -1.4 -8.8 -3.3 l-2.4 -2.5 -13.8 1.2 c-17.8 1.7 -20.5 2.9 -22.7 10.4 -1 3 -2.7 10.8 -4 17.2 -2.1 11.6 -2.2 12 -0.5 23 2.1 13.5 7 30.8 12.6 44.2 12 28.8 24.4 48.1 64.9 100.7 9.1 12 21.1 31.9 32.7 54.6 16.3 31.8 25.7 44.8 30.5 42.2 1.2 -0.6 2.7 -2.6 3.5 -4.4z m23.7 -123.3 c12.9 -22.5 23.3 -47.8 28.2 -68.7 4.1 -18 7.5 -45.9 7.4 -62 -0.1 -17.3 -0.3 -17.5 -7.9 -6.9 -15 21 -36.9 46.1 -47.4 54 l-3.8 3 2.5 7.9 c5.2 16.7 10.5 44.5 12.7 67 1.3 13.4 1.6 14.9 2.9 14.1 0.5 -0.4 2.9 -4.1 5.4 -8.4z m-17.1 -105.3 c24.4 -20 49 -52 51.5 -67.2 0.6 -3.9 -1.4 -17.8 -2.7 -19.1 -0.6 -0.6 -4.5 2.7 -10.1 8.3 -8.5 8.7 -9.1 9.4 -8 11.7 1.3 3 1.5 7.4 0.2 7.4 -0.5 0 -1.3 -1.7 -1.8 -3.7 -1.4 -6 -4.4 -5.7 -8.6 0.9 -5.9 9.2 -8.3 9.7 -10.7 2.2 -1.1 -3.1 -1.5 -3.4 -5.3 -3.4 -2.3 0 -5.5 0.8 -7.2 1.8 -1.6 1 -4.7 2.1 -6.7 2.5 -3.4 0.5 -3.9 0.2 -8.5 -4.8 -4.3 -4.7 -5.5 -5.4 -9.9 -5.9 -11.2 -1.4 -17.5 -2.8 -29.9 -6.5 -7.1 -2.2 -13.3 -3.7 -13.7 -3.4 -1.2 0.7 -4.8 8 -4.8 9.7 0 0.7 1.7 2.8 3.8 4.6 5.9 5 15 13.1 21 18.5 6.1 5.6 26.3 29.5 33.4 39.5 5.4 7.7 9.3 12 10.7 12 0.5 0 3.8 -2.3 7.3 -5.1z m-76.3 -73.7 c1.7 -2.7 3.1 -5.4 3.1 -6.1 0 -1.1 -23.8 -13.1 -26.1 -13.1 -0.6 0 -4.7 -1.6 -9 -3.5 -11.7 -5.1 -12.6 -5 -20.5 4.3 -6 7 -13.2 18.8 -12.1 19.9 0.3 0.2 4 -0.5 8.3 -1.6 4.7 -1.2 11.7 -2.1 17.4 -2.1 8.3 -0.2 11 0.2 21 3.3 6.3 1.9 12.2 3.6 13.1 3.6 1 0.1 3 -2 4.8 -4.7z m87.8 -7.9 l5.4 -3.7 4.2 2.2 c2.3 1.2 4.9 2.2 5.8 2.2 2.4 0 16 -9.2 19.2 -12.9 1.5 -1.8 2.7 -4.3 2.7 -5.5 0 -1.3 -3.4 -10.5 -7.5 -20.6 -13.1 -32 -13.9 -37.1 -8.1 -55.8 1.9 -6.1 3.7 -12.9 4.1 -15 l0.6 -3.8 -6.6 -1.1 c-8.3 -1.4 -16.1 -5.3 -22 -10.9 l-4.5 -4.3 -2.4 2.4 c-3.4 3.4 -5.6 3.1 -8.9 -1 l-2.8 -3.6 -6.6 6.1 c-9.3 8.5 -16.4 12.9 -26.8 16.7 -15.6 5.6 -22.3 6.8 -39.2 6.7 l-15.3 -0.2 0.7 2.7 c0.3 1.4 2.4 6.9 4.7 12.1 3.4 8 4 10.6 4 16.5 0 8.6 -3.7 18 -12 30.6 -2.9 4.5 -5.4 8.6 -5.4 8.9 0 2.5 23.7 15.1 37.2 19.8 20 7.1 48 12.8 56.9 11.6 3.2 -0.4 5.7 -0.1 8 0.9 1.9 0.9 4.5 1.8 5.9 2 1.4 0.2 2.7 0.5 2.9 0.6 0.3 0 2.9 -1.6 5.8 -3.6z m-145 -26.2 c6 -5.3 10.9 -11 17.8 -20.8 l9.5 -13.6 0 -8.6 c0 -13 -2.9 -18.6 -22.6 -43.1 -5.9 -7.4 -13 -16.7 -15.7 -20.7 l-5.1 -7.3 -8.5 8.3 c-4.8 4.6 -15.7 14.1 -24.4 21.1 -8.7 7.1 -17 14.4 -18.4 16.2 l-2.5 3.4 2.8 3.8 c1.5 2 6.2 8 10.4 13.2 13.1 16.3 38.4 49.3 41.5 54.2 2.9 4.6 3 4.7 5 3 1.1 -1 5.7 -5.1 10.2 -9.1z m-47.7 -23.1 c-0.6 -1.1 -1.5 -2 -2 -2 -0.6 0 -1 -0.6 -1 -1.3 0 -0.8 -1 -2.2 -2.1 -3.3 -1.2 -1 -5 -5.8 -8.5 -10.5 -8.5 -11.5 -13.5 -15.9 -24 -21.1 -11.4 -5.5 -11.2 -5.5 -9 -2.9 1.1 1.1 2.3 2.1 2.8 2.1 1 0 10.3 6.7 17.2 12.4 2.7 2.3 7.9 7.7 11.7 12.1 10.2 12 14.3 16.4 15.2 16.5 0.4 0 0.3 -0.9 -0.3 -2z m236.3 -46.7 c-0.3 -13.3 -1.7 -23.3 -3.2 -23.3 -0.5 0 -1.6 0.9 -2.6 2 -2.1 2.3 -1.7 7.2 1.7 21 1.8 7.5 2.4 10.5 2.7 13.3 0.1 0.4 0.4 0.7 0.9 0.7 0.4 0 0.6 -6.2 0.5 -13.7z m-248.7 -24 c26.9 -19.2 42.5 -36.6 54.8 -61.1 2.5 -5 5 -9.3 5.5 -9.6 1.2 -0.8 4.6 6.5 3.4 7.3 -0.5 0.3 -2.8 5.7 -5.1 12 l-4.2 11.3 3.5 7 c4.2 8.4 8 13.5 10.5 14.3 2.8 0.9 7.7 -2.1 11 -6.7 4.2 -5.7 7.7 -17.5 10.8 -36 2.6 -15.6 2.6 -15.8 0.8 -21.5 -3.2 -10 -13.4 -30.3 -21.2 -42 -4.1 -6.2 -7.8 -11.3 -8.2 -11.3 -2 0 -16.9 6.2 -22.7 9.4 -8.5 4.8 -18.4 14.1 -23.3 21.9 -3.7 6 -16.2 32.3 -24.3 51.3 -8.3 19.7 -11.5 38.2 -8.5 48.9 2.3 7.8 4.1 10.5 7 10.5 1.3 0 5.9 -2.5 10.2 -5.7z m154 -25.4 c8.5 -2.6 17 -6.8 20.7 -10.2 4 -3.8 3.5 -6.9 -2 -12.8 -13.3 -14.2 -39.2 -25 -57.2 -23.7 -15.3 1.1 -18.6 8.6 -10.9 24.6 8.9 18.7 29.9 28.1 49.4 22.1z m74.4 -5.8 c14 -5.3 21.8 -18.5 19 -32.4 -0.6 -3.4 -1.9 -7.4 -2.7 -9 l-1.4 -2.8 -9 8.8 c-10.7 10.4 -29.1 32 -29.3 34.2 -0.2 3.3 15.8 4.1 23.4 1.2z m-26 -12.8 c2.2 -3.2 7.1 -10.5 10.9 -16.3 3.7 -5.8 9.3 -13.5 12.4 -17.2 l5.6 -6.7 -7.9 -10.8 c-4.4 -5.9 -10.6 -14.4 -13.7 -18.8 -3.2 -4.4 -8.9 -11.3 -12.8 -15.2 -7 -7.2 -7.1 -7.3 -12.3 -7.3 -6.7 0 -8.9 -2 -14 -12.7 -3.6 -7.7 -3.6 -7.7 -3.4 -19.7 0.1 -6.7 0.5 -12.9 0.8 -13.8 0.4 -1.4 -0.5 -1.8 -5.3 -2.3 -7.3 -0.8 -15.6 -3.1 -20.8 -5.7 -6.6 -3.3 -17.2 -11.6 -22.6 -17.7 -10.7 -12 -18.6 -33.9 -16.2 -45.3 0.6 -2.9 0.9 -5.5 0.7 -5.7 -0.9 -1 -6.6 5.7 -8.8 10.4 -5.1 10.7 -5.6 20 -2.6 50.5 2.4 24.4 2.4 29.2 0.6 32.8 -1.4 2.7 -10.1 11.3 -19.2 18.8 l-4.9 4.1 2.7 3.9 c1.5 2.1 6.5 9.3 11.2 15.9 7.1 10 11.3 17.4 19.6 34.5 0.5 1 4.8 2.2 13.6 3.6 36.3 6.1 51.5 14.4 73.2 39.8 1.8 2.1 3.6 3.5 3.9 3.2 0.9 -0.8 -1.3 -15.5 -3 -20.4 -1.1 -3.3 -1.2 -3.9 -0.1 -3.5 0.7 0.3 1.3 0.8 1.2 1.1 -0.1 0.4 0.9 2.9 2.1 5.6 1.5 3.1 2.5 7.6 2.8 12.7 0.3 4.4 0.9 7.9 1.4 7.9 0.4 0 2.6 -2.6 4.9 -5.7z m36.6 -51 c-0.2 -1 -1.5 -5.5 -2.6 -10.1 -2.9 -10.9 -7.6 -16.3 -19.2 -22 -4.5 -2.3 -8.4 -3.9 -8.7 -3.7 -0.2 0.3 0.5 1.5 1.6 2.8 1.2 1.2 5.1 6.9 8.8 12.7 10.1 16 15 22 18.1 22 1.9 0 2.4 -0.4 2 -1.7z m-49.6 -111 c14.6 -9.6 30.9 -19.8 36.7 -22.9 2.9 -1.6 5.3 -3.2 5.3 -3.5 0 -0.3 -4 -0.9 -9 -1.1 -12.9 -0.8 -16.8 -4 -12.1 -9.9 6.2 -8 6.5 -13.7 1.5 -26.9 -4.8 -12.4 -9.6 -19.5 -16.3 -24.2 -9.1 -6.4 -14.4 -7.8 -28.5 -7.8 -20.6 0 -28.1 2.4 -37 12 -13.9 15.1 -19.1 35.6 -13.2 51.5 6.6 17.3 24.5 34 41.1 38.2 2.8 0.7 8.8 1.1 13.5 1 l8.5 -0.2 9.5 -6.2z m117.9 -40.7 c-0.8 -0.9 -23.6 -6.6 -31.9 -8.1 -4.7 -0.8 -14 -1.8 -20.7 -2.1 -14.4 -0.8 -17.6 0.1 -19.8 5.4 -0.8 1.9 -1.5 3.6 -1.5 3.8 0 0.2 13.6 0.5 30.3 0.7 16.6 0.1 33.3 0.3 37.1 0.5 3.8 0.1 6.7 0 6.5 -0.2z"/>
    <path d="M522.6 274.1 c-1.5 -1 -2.4 -2.1 -1.9 -2.4 0.9 -0.6 5.9 3.1 5.2 3.8 -0.3 0.2 -1.7 -0.4 -3.3 -1.4z"/>
    <path d="M539.5 147.1 c-4.4 -2 -24.5 -22.3 -22.7 -22.9 0.6 -0.2 3 0.7 5.3 1.9 6.5 3.3 15.4 3.7 20.8 1 l4.2 -2.2 5.5 6 c5.7 6.1 11.1 9.1 16.5 9.1 5 0 2.9 2.4 -2.7 3.1 -2.7 0.3 -7.4 1.8 -10.4 3.2 -6.4 3.1 -11 3.4 -16.5 0.8z"/>
  </g>
</svg>